PathFileType	4	(X/Y/Z)	Walk1_0-155.trc
DataRate	CameraRate	NumFrames	NumMarkers	Units	OrigDataRate	OrigDataStartFrame	OrigNumFrames
30	30	7	22	m	30	19	155
Frame#	Time	Hip			RHip			RKnee			RAnkle			RBigToe			RSmallToe			RHeel			LHip			LKnee			LAnkle			LBigToe			LSmallToe			LHeel			Neck			Head			Nose			RShoulder			RElbow			RWrist			LShoulder			LElbow			LWrist		
		X1	Y1	Z1	X2	Y2	Z2	X3	Y3	Z3	X4	Y4	Z4	X5	Y5	Z5	X6	Y6	Z6	X7	Y7	Z7	X8	Y8	Z8	X9	Y9	Z9	X10	Y10	Z10	X11	Y11	Z11	X12	Y12	Z12	X13	Y13	Z13	X14	Y14	Z14	X15	Y15	Z15	X16	Y16	Z16	X17	Y17	Z17	X18	Y18	Z18	X19	Y19	Z19	X20	Y20	Z20	X21	Y21	Z21	X22	Y22	Z22
20	0.6666666666666666	-2.512368470798308	0.8400304149878778	0.32341869512079946	-2.4607877302635983	0.8256018403037615	0.42703148959590415	-2.2985284872774874	0.5203585807277458	0.46358723431798904	-2.47730064270013	0.1380441416666625	0.48635275396166644	-2.3421900612324245	0.008880791260743592	0.5166105889738337	-2.3589265283701555	0.02506166257904882	0.5829416952349868	-2.5751887726515323	0.06483773906904387	0.4536936140336416	-2.5283540968225773	0.805773148130256	0.23405352790601924	-2.504480000682802	0.4490759827639679	0.24185484686831946	-2.5732998000998295	0.07925576897489854	0.2739222637274329	-2.372783189312734	-0.015476489851258431	0.2753237020640991	-2.4197618156284033	-0.01965998966871891	0.21008770189197315	-2.6262760697127985	-0.0008910894099592997	0.29066920163166	-2.4915561694619366	1.5140841601315687	0.27352728333111553	-2.4183130405427273	1.7771459873198998	0.23532790706460988	-2.3358094897836916	1.6409065406798529	0.28367205669758394	-2.5295620019165477	1.4101261698564538	0.46246919816127785	-2.5103951394501833	1.0915013455761478	0.5554528329616231	-2.4268377953875295	0.8578984019558552	0.570704299116777	-2.553988662921391	1.4094032269244856	0.05694772259934171	-2.501790884014021	1.083755142005057	0.06654555120674016	-2.4571041941126337	0.83897044340122	0.07606072185631166
21	0.7	-2.502858197851872	0.8424879472408889	0.3217202675015444	-2.448788398285354	0.8291067024938509	0.4200230822775082	-2.27454971850327	0.5208053421381126	0.4616706688258075	-2.4417152945768454	0.14331555781122793	0.47718225005100967	-2.3209720437785064	0.020317746637894013	0.48785043821020424	-2.334927125388076	0.011946406941259142	0.5558723089746905	-2.544354654852897	0.0660234703080202	0.4473880568367734	-2.52527918786404	0.8059254732311135	0.23010527700397113	-2.5010891106201547	0.4478258534931848	0.24202618994581013	-2.5725230170733204	0.07871337691722544	0.27400010423772153	-2.373774630055354	-0.016970354619528345	0.2779295367927301	-2.4210411533051603	-0.02131379177012866	0.2123693452483037	-2.624688940092017	0.0009218396474883618	0.2890426196714111	-2.4831518537991366	1.515665229417262	0.2758190255599311	-2.4125674748281796	1.7728775170638318	0.23511422321921654	-2.322398187642315	1.6379924772542949	0.28662240099164327	-2.521726979957075	1.4094549770950442	0.4625292340769786	-2.5097207599001803	1.0922600002661547	0.5534817098631727	-2.426366425246258	0.8606702242753307	0.5699461098851775	-2.5437398825707587	1.414442686500967	0.05206281529142132	-2.4924945323555807	1.0855740679777235	0.06471094364340181	-2.448276993634685	0.8410393357295239	0.07390796893197295
22	0.7333333333333333	-2.492569841592044	0.8440621231942228	0.32031834204952064	-2.4333548055968026	0.8343051991008543	0.4207510472511111	-2.2587767918952473	0.5255019171623496	0.457418819621686	-2.397797777207073	0.14732323235365843	0.47154408271592385	-2.266638180456602	0.03196069086507329	0.48296862715489974	-2.2867005521749544	0.01564738702257634	0.5504736768643018	-2.4960934464535356	0.06805233422920698	0.44816153678359744	-2.5165576869568644	0.8080742496723203	0.2263009519126145	-2.492893042126239	0.44956025511694353	0.2416853290208792	-2.572409880180411	0.08039301830959608	0.27454200299166387	-2.3775601662161785	-0.017928236585574013	0.28150024588364425	-2.4244955228508966	-0.021940274973940705	0.2179467022928368	-2.6272520455412853	0.0010489347918575848	0.28956779854636444	-2.471175371874886	1.514956272504389	0.2740667243120673	-2.3939907097228303	1.7805491215208935	0.23343884868004372	-2.3137424655934	1.6383780379782638	0.2816290503692999	-2.5119172184805136	1.411920767733482	0.46052988079528656	-2.452955360683816	1.0827237943226167	0.5580641493416927	-2.4239789894269115	0.8579070855226186	0.5673142462888974	-2.5322695154711803	1.4133362996226826	0.05055979287619681	-2.482831094904321	1.0829825975282625	0.06454357227098771	-2.435695953544129	0.8435300052416099	0.07001595681424608
23	0.7666666666666667	-2.482124673247851	0.8473811368934566	0.32103148255375	-2.428337150278599	0.8367816612729857	0.4174114051386544	-2.2476965783957232	0.5244336074865789	0.45452783371431077	-2.359418520502836	0.139750692309306	0.4681056266941814	-2.2001133481914037	0.038629821968672505	0.48561945929001066	-2.2241669346703405	0.024062726716544587	0.5450541806074158	-2.4445100345173705	0.0564025981048251	0.4486602845364175	-2.509830211392799	0.8106821297833011	0.22447615091016682	-2.4876706974134337	0.45242186752694635	0.24343531408792582	-2.573365478304913	0.07963909048527855	0.2706662945330325	-2.3797528909160706	-0.021630893636213424	0.28211097568378307	-2.428204031156281	-0.02324474884912649	0.22034995303808858	-2.623936617520228	0.0024528946296887466	0.2820464796355271	-2.460958669375085	1.516872699178216	0.2716104095337977	-2.3793350925456953	1.7679343050014804	0.30395356693463094	-2.299636540435076	1.6401074055922586	0.2857045419585843	-2.5014187699232573	1.4123729395563847	0.45857065315617257	-2.4462974421720136	1.0860612507832574	0.5603542524419601	-2.4214670121507393	0.8553606492795948	0.5674162423174894	-2.52013721758317	1.4188914683382772	0.05529494615841056	-2.4701097608902125	1.090468108190027	0.06690050023668537	-2.4237133705021394	0.8457400250440522	0.07044859260983166
24	0.8	-2.4701656690878893	0.8461602829923344	0.32001367843115613	-2.41723934959731	0.8372358572275516	0.41611460348293333	-2.2596405476686674	0.5352988403545021	0.43256380330677113	-2.328224764303393	0.1276920256184422	0.46153819876852775	-2.1423952740673458	0.0416399035232236	0.48417174810993113	-2.160580998147693	0.0292583720984142	0.5607576274024477	-2.370330812654316	0.03977362201529798	0.43467282502720017	-2.4971996683669375	0.8115640004510218	0.22388743591849256	-2.486329046998758	0.44693778610459156	0.24290894508970157	-2.573614745919121	0.07819647817144862	0.26844989426431193	-2.386720980881278	-0.021780699045525927	0.28807540764422224	-2.432732565784631	-0.01966037547193159	0.22403163083852576	-2.622718396001521	-0.0005360985416382633	0.2733712977086633	-2.4500685927612786	1.5160781334824316	0.2711156090340666	-2.3685080168716763	1.7694303335156258	0.30278546507690385	-2.290531406987314	1.6403650799476295	0.2867646139852005	-2.4921603828352175	1.413977862167072	0.45448011487617407	-2.435867341050565	1.0823069025750665	0.5598303433639235	-2.422185007966144	0.8484527792386201	0.5694167658574125	-2.5061235595691564	1.4185840979211528	0.05610510560481966	-2.458398623080624	1.0900084786283417	0.06793677463103598	-2.4085384497569544	0.8438136367261312	0.07329028021438846
25	0.8333333333333334	-2.461576238582875	0.8460542946721944	0.3205999225950845	-2.4031404770101976	0.8340226115915945	0.41984176948054996	-2.254764274969359	0.528249069501978	0.42752613768595243	-2.284742709674511	0.12546551346287238	0.46471946523158014	-2.0649457477543507	0.04084140757857373	0.4703108026432457	-2.1246016730292943	0.040956346873280355	0.5485039184011455	-2.314937107375784	0.026798954819713457	0.4298050990209927	-2.487893169052948	0.8040609738566163	0.23073261921558616	-2.4776027625507964	0.4433692962208971	0.24253639623138995	-2.570807858362775	0.07613925044408908	0.2697761484764755	-2.382608624746679	-0.02011584945634431	0.2848191680226441	-2.4328418418961504	-0.02172609843746183	0.22436495557707012	-2.6205469512045574	7.665323880143652e-05	0.2705710306798238	-2.4320836223300053	1.5162609496982193	0.27239270622918277	-2.350235748062338	1.771665979411444	0.3038786966329249	-2.2818222892815294	1.6499973588843073	0.25258596990492366	-2.475894442224479	1.4116609770964377	0.4532550495949843	-2.4303714278791486	1.0829339128405473	0.558688841484494	-2.4238263387643038	0.8482505307331875	0.5708480230662544	-2.4881132120122698	1.4152690051146128	0.05665171481768983	-2.442140570544812	1.087551135359895	0.0679624961010679	-2.3876660424602867	0.8445282247026001	0.07895633593420623
26	0.8666666666666667	-2.4425413155805353	0.842858763774915	0.3215702765089761	-2.3860245539856613	0.8277462324443159	0.41562581382358976	-2.247080262456739	0.5178455417961237	0.41814034440737274	-2.221021953089007	0.1105921432420585	0.45578744897488666	-2.025004862872183	0.05655621972211434	0.47872512798823846	-2.071262317285497	0.05036277018267446	0.5437120568644898	-2.2615976762996595	0.016419324353346698	0.43163159872386914	-2.4698396805314786	0.8031260663542337	0.2290016085391497	-2.4758134490037733	0.4364298830455888	0.2460450619497184	-2.571190924156474	0.06901782836937076	0.27383044484383845	-2.3782539038145063	-0.026317845634027965	0.2814694823238399	-2.4275498737929175	-0.02921541231570689	0.22299839463369098	-2.625440242045579	-0.004188304548368066	0.2776264946210172	-2.4167477407813442	1.5179030959321667	0.27442796529538854	-2.3336224267458108	1.7716987973310063	0.30525812857008355	-2.257444626200956	1.637899414308746	0.29565300358515356	-2.4620915153770624	1.4088773356575883	0.4606427120926496	-2.429733025873287	1.0797353830451204	0.556490380707762	-2.422766661213489	0.8432544079521588	0.5701359731689349	-2.473140325005748	1.417130163180243	0.05691460290197584	-2.4259595168309502	1.0899779562285599	0.0656035143304885	-2.3672093664617044	0.8462877166720525	0.08266265504037987
